<?xml version="1.0" encoding="utf-8"?>
<!-- Generator: Adobe Illustrator 25.0.0, SVG Export Plug-In . SVG Version: 6.00 Build 0)  -->
<svg version="1.1" id="Camada_1" xmlns="http://www.w3.org/2000/svg" xmlns:xlink="http://www.w3.org/1999/xlink" x="0px" y="0px"
	 viewBox="0 0 1000 1000" style="enable-background:new 0 0 1000 1000;" xml:space="preserve">
<path d="M500,0C224.3,0,0,224.3,0,500c0,275.7,224.3,500,500,500c275.7,0,500-224.3,500-500C1000,224.3,775.7,0,500,0z M641.3,315.6
	c0,4.9-4,8.9-8.9,8.9l-56.8,0c-37.5,0-44.4,14.6-44.4,43.4v59.7h97.5c2.6,0,5,1.1,6.7,3c1.7,1.9,2.5,4.5,2.2,7l-13.9,107.4
	c-0.6,4.5-4.4,7.8-8.9,7.8h-83.6v266.7c0,4.9-4,8.9-8.9,8.9H411.4c-4.9,0-8.9-4-8.9-8.9V552.9h-83.9c-4.9,0-8.9-4-8.9-8.9V436.6
	c0-4.9,4-8.9,8.9-8.9h83.9v-70.3c0-93.1,56.3-150.9,147.1-150.9c39,0,73.5,2.9,84.1,4.3c4.4,0.6,7.8,4.4,7.8,8.8V315.6z" fill="#063f57"/>
</svg>
