<?xml version="1.0" encoding="utf-8"?>
<!-- Generator: Adobe Illustrator 25.0.0, SVG Export Plug-In . SVG Version: 6.00 Build 0)  -->
<svg version="1.1" id="Camada_1" xmlns="http://www.w3.org/2000/svg" xmlns:xlink="http://www.w3.org/1999/xlink" x="0px" y="0px"
	 viewBox="0 0 1000 1000" style="enable-background:new 0 0 1000 1000;" xml:space="preserve">
<path d="M656.2,281.2H343.8c-34.5,0-62.5,28-62.5,62.5v312.5c0,34.5,28,62.5,62.5,62.5h312.5c34.5,0,62.5-28,62.5-62.5V343.8
	C718.8,309.2,690.8,281.2,656.2,281.2z M500,625c-69,0-125-56-125-125s56-125,125-125s125,56,125,125S569,625,500,625z M640.6,398.4
	c-21.6,0-39.1-17.5-39.1-39.1s17.5-39.1,39.1-39.1s39.1,17.5,39.1,39.1S662.2,398.4,640.6,398.4z" fill="#063f57"/>
<circle cx="500" cy="500" r="62.5" fill="#063f57"/>
<path d="M500,0C223.9,0,0,223.9,0,500s223.9,500,500,500s500-223.9,500-500S776.1,0,500,0z M781.2,656.2c0,69-56,125-125,125H343.8
	c-69,0-125-56-125-125V343.8c0-69,56-125,125-125h312.5c69,0,125,56,125,125V656.2z" fill="#063f57"/>
</svg>
