<?xml version="1.0" encoding="utf-8"?>
<!-- Generator: Adobe Illustrator 25.0.0, SVG Export Plug-In . SVG Version: 6.00 Build 0)  -->
<svg version="1.1" id="Camada_1" xmlns="http://www.w3.org/2000/svg" xmlns:xlink="http://www.w3.org/1999/xlink" x="0px" y="0px"
	 viewBox="0 0 1000 1000" style="enable-background:new 0 0 1000 1000;" xml:space="preserve">
<path d="M500,0C224.3,0,0,224.3,0,500c0,275.7,224.3,500,500,500c275.7,0,500-224.3,500-500C1000,224.3,775.7,0,500,0z M766.1,369.6
	c-13.3,19.9-29.7,37.3-48.8,51.8c0.1,2.9,0.1,5.8,0.1,8.7c0,145.8-111,296.6-296.6,296.6c-56.7,0-112.1-16.2-159.8-46.8
	c-3.5-2.2-5-6.6-3.6-10.5c1.4-3.9,5.3-6.4,9.4-5.9c7.8,0.9,15.6,1.3,23.1,1.3c36.4,0,71.1-9.8,101.6-28.5
	c-37.3-9-67.2-36.8-78.9-73.4c-1-3-0.3-6.3,1.8-8.7c2.1-2.4,5.3-3.4,8.4-2.8c1.7,0.3,3.4,0.6,5,0.8c-31-19.8-51.1-54.5-51.1-92.9
	v-1.3c0-4.9,4-8.9,8.9-8.9c1.5,0,3,0.4,4.3,1.1c3.9,2.2,7.9,4,12,5.6c-15.9-19.6-24.5-44.1-24.5-69.3c0-19.4,5.2-38.6,14.9-55.3
	c2.5-4.3,7.9-5.7,12.2-3.2c0.9,0.5,1.8,1.2,2.4,2.1c47.5,58.2,116.5,94.8,190.8,101.6c-0.5-4.4-0.8-8.9-0.8-13.3
	c0-60.7,49.4-110,110.1-110c28.6,0,56.3,11.3,76.8,31.1c20-4.4,39.1-12,56.7-22.5c1.5-4.7,6.5-7.3,11.2-5.8
	c4.7,1.5,7.3,6.5,5.8,11.2c-0.7,2.1-2.1,3.8-3.9,5c-4.4,13.7-11.4,26.4-20.7,37.4c7.6-2.3,15-5,22.2-8.2c4.5-2,9.8,0,11.8,4.6
	C768.1,363.8,767.8,367,766.1,369.6L766.1,369.6z" fill="#063f57"/> 
</svg>
