<?xml version="1.0" encoding="utf-8"?>
<!-- Generator: Adobe Illustrator 25.0.0, SVG Export Plug-In . SVG Version: 6.00 Build 0)  -->
<svg version="1.1" id="Camada_1" xmlns="http://www.w3.org/2000/svg" xmlns:xlink="http://www.w3.org/1999/xlink" x="0px" y="0px"
	 viewBox="0 0 1000 1000" style="enable-background:new 0 0 1000 1000;" xml:space="preserve">
<path d="M432.2,601.8L601.9,500L432.2,398.2L432.2,601.8z" fill="#063f57"/>
<path d="M500,0C223.9,0,0,223.8,0,500s223.9,500,500,500s500-223.9,500-500S776.1,0,500,0z M771.5,521.9c0,46.9-5.4,93.8-5.4,93.8
	s-5.3,39.9-21.6,57.5c-20.7,23.1-43.8,23.2-54.4,24.6c-76,5.8-190.1,6-190.1,6s-141.2-1.4-184.6-5.8c-12.1-2.4-39.2-1.7-59.9-24.8
	c-16.3-17.6-21.6-57.5-21.6-57.5s-5.4-46.8-5.4-93.8V478c0-46.9,5.4-93.7,5.4-93.7s5.3-39.9,21.6-57.5
	c20.7-23.1,43.8-23.2,54.4-24.5c76-5.9,190-5.9,190-5.9h0.2c0,0,114,0,190,5.9c10.6,1.3,33.8,1.4,54.4,24.5
	c16.3,17.6,21.6,57.5,21.6,57.5s5.4,46.9,5.4,93.8C771.5,478,771.5,521.9,771.5,521.9z" fill="#063f57"/>
</svg>
